<?xml version="1.0" encoding="UTF-8"?><!DOCTYPE svg PUBLIC "-//W3C//DTD SVG 1.0//EN" "http://www.w3.org/TR/2001/REC-SVG-20010904/DTD/svg10.dtd" []><svg xmlns="http://www.w3.org/2000/svg" xmlns:xlink="http://www.w3.org/1999/xlink" data-name="Layer 1" height="220.2" preserveAspectRatio="xMidYMid meet" version="1.0" viewBox="10.9 145.0 479.5 220.2" width="479.5" zoomAndPan="magnify"><g id="change1_1"><path d="M126.71,342.5l-2.78-.87-.89,2.78,2.8.88Zm5.57,1.67-2.79-.83-.84,2.8,2.81.83Zm5.61,1.59-2.81-.79-.8,2.81,2.83.79Zm5.62,1.51-2.81-.75-.76,2.82,2.83.75Zm5.65,1.43-2.83-.71-.72,2.83,2.84.72Zm5.66,1.37-2.83-.68-.69,2.84,2.85.68Zm5.68,1.29-2.84-.64-.65,2.85,2.86.64Zm5.7,1.23-2.85-.61-.62,2.86,2.87.61Zm5.71,1.16-2.85-.57-.59,2.86c1,.19,1.91.39,2.87.57Zm5.73,1.09-2.87-.54-.55,2.87,2.88.54Zm5.73,1c-1-.16-1.91-.32-2.87-.5l-.51,2.88,2.88.5Zm5.75.95-2.88-.46-.47,2.88,2.89.47Zm5.76.88-2.88-.43-.44,2.89,1.18.18,1.71.25Zm5.77.81-1.71-.23-1.18-.17-.4,2.9,1.19.16,1.71.23Zm5.78.73-1.58-.19-1.31-.17-.37,2.9,1.32.17,1.59.19Zm5.79.66-1.32-.15-1.57-.17-.34,2.9,1.59.18,1.32.14Zm5.79.58-.94-.09-1.95-.19-.3,2.91,2,.19,1,.09Zm5.81.51-2-.17-.86-.08-.25,2.91.86.08,2.06.17Zm5.81.42-1.49-.1-1.42-.1-.22,2.91,1.44.11,1.48.1Zm5.81.35-.83-.05-2.08-.11-.18,2.91,2.1.12.83.05Zm5.81.26-1.73-.07-1.17-.05-.14,2.92,1.19.05,1.74.07Zm5.83.18-.92,0-2-.06-.1,2.92,2,.06.92,0Zm5.82.09-1.72,0-1.19,0-.05,2.93h1.2l1.73,0Zm5.82,0h-2.91v2.92h2.94Zm5.82-.09-1.48,0-1.43,0,0,2.92,1.45,0,1.48,0Zm5.82-.18-2.15.08-.76,0,.09,2.92.77,0,2.16-.08Zm5.81-.28-1.05.06-1.85.09.13,2.92,1.88-.1,1.05-.06Zm5.81-.38-1.65.12-1.25.08.18,2.92,1.28-.09,1.65-.12Zm5.8-.48-2.21.19-.69.06.23,2.91.71,0,2.22-.2Zm5.79-.59-1,.11-1.9.2.28,2.91,1.93-.2,1-.11Zm5.78-.69-1.5.19-1.39.17.34,2.9,1.41-.17,1.5-.19Zm5.75-.8-2,.29-.9.13.39,2.89.93-.13,2-.29Zm5.75-.91-.66.11-1.77.29-.44.07.45,2.89.46-.08,1.78-.29.66-.11Zm5.72-1-1.09.21-1.76.32.5,2.88,1.8-.33,1.09-.21Zm5.7-1.15-1.5.32-1.35.27.57,2.87,1.37-.28,1.5-.32Zm5.67-1.26-1.88.43-.95.22.63,2.85,1-.22,1.91-.44Zm5.64-1.39-.49.12-1.75.45-.57.14.69,2.84.58-.15,1.78-.44.49-.13Zm5.62-1.52-.85.24-2,.53.74,2.83,2-.55.84-.24Zm5.57-1.65-1.17.36-1.62.48.83,2.81,1.63-.49,1.18-.36Zm5.53-1.77-1.48.49-1.28.41.89,2.79,1.3-.42,1.48-.49Zm5.48-1.91-1.75.63-1,.34.95,2.76,1-.34,1.77-.64Zm5.44-2-.3.12-1.72.66-.69.25,1,2.74.71-.26L362,347l.3-.12ZM366.6,342l-.55.23-1.7.7-.43.17,1.08,2.72.45-.18,1.73-.71.55-.24Zm5.33-2.32-.78.34-1.87.83,1.14,2.69,1.93-.85.77-.34Zm5.26-2.46-1,.47-1.66.78,1.24,2.65,1.68-.8,1-.47Zm5.19-2.6-1.14.59-1.45.73,1.3,2.61,1.47-.74,1.15-.59Zm5.12-2.74-1.29.71-1.27.68,1.38,2.58,1.29-.7,1.28-.71Zm5-2.88-1.4.82-1.12.64,1.44,2.54,1.15-.65,1.39-.82Zm4.95-3-1.47.92-1,.61,1.51,2.5,1-.62,1.48-.92Zm4.87-3.16-1.52,1-.91.59,1.58,2.46.93-.61,1.53-1Zm4.78-3.3-1.54,1.09-.84.58,1.65,2.41.86-.6,1.54-1.08Zm4.67-3.43-1.51,1.13-.82.61,1.72,2.36.84-.62,1.52-1.13Zm4.58-3.57-1.45,1.16-.83.65,1.79,2.31.85-.67,1.45-1.15Zm4.47-3.7-1.35,1.15-.88.72,1.86,2.26.89-.74,1.35-1.15Zm4.36-3.82L424,306.06l-.95.84,1.92,2.2,1-.85,1.22-1.1Zm4.25-4-1.05,1-1.07,1,2,2.15,1.09-1,1-1ZM433.6,297l-.83.84L431.54,299l2,2.09,1.24-1.24.84-.84Zm4-4.19-.58.63-1.41,1.48,2.11,2,1.43-1.5.58-.63Zm3.89-4.3-.3.34-1.38,1.55-.24.27,2.15,2,.26-.29,1.4-1.57.3-.34Zm3.79-4.42-1.35,1.61-.53.61,2.21,1.92.54-.64,1.36-1.61Zm3.64-4.51-1,1.23-.84,1,2.27,1.85.86-1.07,1-1.22Zm3.53-4.61-.56.76-1.19,1.57L453,279l1.2-1.59.56-.75Zm3.4-4.7-1.4,2-.28.4,2.35,1.73.31-.42,1.41-2Zm3.29-4.79-.92,1.37-.71,1,2.4,1.65.72-1.05.93-1.37Zm3.21-4.86-.59.91-1,1.53,2.43,1.62,1-1.55.59-.91Zm3.11-4.91-.4.66-1.14,1.8,2.46,1.58,1.15-1.84.41-.65Zm3-5-.37.62L467,253.18l2.49,1.53,1.15-1.91.36-.62Zm2.88-5-.44.8-1,1.72,2.52,1.47,1-1.76.45-.8Zm2.75-5.12-.63,1.21-.73,1.36,2.58,1.39.73-1.38.64-1.21Zm2.59-5.18-.16.34-.73,1.49-.38.77,2.6,1.32.4-.8.74-1.51.16-.34Zm2.42-5.27-.55,1.24-.64,1.41,2.66,1.22.65-1.44.55-1.24Zm2.19-5.35-.38,1-.55,1.38-.14.31,2.7,1.14.14-.35.57-1.4.38-1Zm2-5.43-.36,1.07-.46,1.32-.13.33,2.75,1,.13-.37.47-1.35.36-1.08Zm1.65-5.51-.06.24-.34,1.24-.38,1.27,2.79.88.39-1.35.36-1.28.06-.23Zm1.32-5.61-.22,1-.26,1.17-.13.6,2.84.68.15-.63.26-1.22.21-1Zm.88-5.66-.12,1-.16,1.11-.11.71,2.89.47.11-.76.16-1.15.13-1Zm.37-5.67v.37l0,1-.06,1,0,.42,2.91.23,0-.47.05-1.09,0-1.07v-.37Zm-.22-5.67,0,.2.08.94.06,1,0,.74,2.92-.1,0-.79-.07-1-.08-1,0-.2Zm-.92-5.57.1.42.18.86.17.87.1.62,2.89-.46-.12-.68-.18-.93-.19-.92-.1-.43Zm-1.69-5.35.33.86.29.79.26.8.06.17,2.8-.83-.08-.23L488,181l-.31-.84-.36-.93Zm-2.49-5,.41.71.39.7.37.72.16.32,2.64-1.26L486,176l-.4-.78-.43-.76-.44-.77Zm-3.24-4.58.52.64.49.63.47.64.22.31,2.4-1.67-.25-.35-.51-.69-.53-.69-.56-.69Zm-3.9-4.07.61.56.58.56.57.57.25.27,2.13-2-.29-.31-.61-.61-.63-.6-.64-.6ZM470.59,163l.61.43.67.5.66.51.34.27,1.84-2.27-.38-.3-.7-.54-.71-.53-.61-.43Zm-4.81-3,.41.23.75.44.74.44.56.35L469.8,159l-.6-.38-.78-.46-.78-.46-.41-.23Zm-5.11-2.56.81.37.81.38,1,.48,1.34-2.6-.2-.11-.84-.4-.84-.4-.81-.37Zm-5.31-2.14,1.06.39.87.33.75.31,1.1-2.71-.79-.32-.9-.34-1.09-.4Zm-5.46-1.78,1.15.34.92.29.67.22.92-2.78-.71-.23-.94-.29-1.19-.36Zm-5.58-1.47,1.1.26,1,.24.74.19.75-2.82-.77-.2-1-.25-1.12-.27Zm-5.66-1.2.89.17,1,.2.95.2.61-2.86-1-.21-1-.2-.9-.17Zm-5.7-1,.54.08,1,.16,1.3.21.49-2.88-1.33-.22-1-.16-.54-.08Zm-5.74-.74,1.11.13,1,.12.72.1.38-2.9-.73-.1-1.06-.12-1.13-.14Zm-5.78-.56.59.05,1.06.09,1.24.12.29-2.91-1.27-.12-1.08-.09-.58-.05Zm-5.79-.38,1.06.06,1.07.06.77,0,.2-2.92-.79-.05-1.08-.06-1.06-.06Zm-5.8-.24,1.51.05,1.39.05.13-2.92-1.42,0-1.52-.05Zm-5.81-.09,1.95,0h1L407,145l-1,0h-2Zm-5.81,0,1.34,0h1.56V145h-1.58l-1.35,0Zm-5.82.15,2.91-.09h0l-.07-2.92c-.94.07-2,.06-2.93.09Zm-5.81.26,2.91-.14-.13-2.92-2.93.14Zm-5.81.36,2.91-.19-.18-2.92-2.93.2Zm-5.8.46,2.9-.24-.22-2.91-2.93.24Zm-5.8.56,2.9-.29-.27-2.91-2.92.29Zm-5.78.64c1-.12,1.93-.22,2.89-.33l-.32-2.91-2.91.34Zm-5.78.73,2.89-.38-.36-2.9-2.91.38Zm-5.76.82,2.88-.42-.41-2.89-2.9.42Zm-5.75.92,2.87-.47-.45-2.89-2.9.48Zm-5.72,1,2.86-.53-.51-2.87-2.89.53ZM334.72,155c.94-.21,1.89-.41,2.83-.6l-.58-2.87c-1,.2-1.92.4-2.88.62Zm-5.36,1.57a23.47,23.47,0,0,1,2.6-.9l-.79-2.82-.9.27-.31.1-1.17.43-.54.22ZM325,159.44a12.75,12.75,0,0,1,2-1.63h0l-1.55-2.48-.25.17-.23.15-.22.16-.21.16-.22.16-.21.16-.2.17-.2.17-.2.17-.19.18-.18.18-.22.21Zm-2.56,4.39a10.46,10.46,0,0,1,1-2.36L320.92,160l-.2.35-.12.22-.11.22-.1.22-.1.22-.1.22-.18.45-.09.23-.08.23-.08.23-.12.41Zm-.37,5.23a14,14,0,0,1-.06-2.66l-2.91-.24a17.77,17.77,0,0,0,.06,3.18Zm1.2,5.37c-.29-.88-.55-1.77-.76-2.67l-2.85.64c.23,1,.51,2,.84,2.95Zm2.2,5.18c-.43-.84-.82-1.69-1.2-2.56l-2.69,1.14c.4.92.82,1.84,1.28,2.73Zm2.84,4.93c-.52-.8-1-1.61-1.49-2.43l-2.53,1.45c.5.87,1,1.72,1.56,2.56Zm3.29,4.68c-.58-.76-1.14-1.53-1.69-2.3l-2.4,1.67q.86,1.22,1.77,2.4Zm3.65,4.44c-.63-.72-1.26-1.45-1.86-2.19l-2.27,1.85c.63.77,1.28,1.52,1.93,2.26Zm3.93,4.2c-.68-.68-1.34-1.37-2-2.07l-2.14,2c.68.72,1.37,1.44,2.07,2.14Zm4.19,3.95q-1.08-1-2.13-1.95l-2,2.13c.72.67,1.45,1.34,2.19,2Zm4.41,3.69c-.75-.59-1.5-1.19-2.23-1.81l-1.89,2.24c.76.63,1.53,1.26,2.31,1.87Zm4.63,3.41c-.79-.55-1.57-1.1-2.34-1.67l-1.74,2.35c.8.59,1.61,1.16,2.42,1.72Zm3.54,2.29-1.15-.71L353.23,213l1.19.74ZM121.17,340.73l-2.73-.94-1,2.75c.93.34,1.86.65,2.8,1Z" fill="#363034"/></g><g id="change2_1"><path d="M199.77,262.18,20.34,258.64,137.8,298.18ZM15.79,261,66,349.21l41-30Zm94,57a1.26,1.26,0,0,1,.51.58l9.4,20.9,16.52-39.22L21.53,261.7Zm7,21.15-8.15-18.12-9.06,6.63ZM12.25,256h0l192.07,3.79a1.25,1.25,0,0,1,1.23,1.28,1.28,1.28,0,0,1-.62,1.07l-66,38.34-18,42.71a1.27,1.27,0,0,1-.67.7,1.25,1.25,0,0,1-1.24-.13L97.45,329.3,66.32,352.08a1.26,1.26,0,0,1-1.76-.27,1.4,1.4,0,0,1-.1-.16L11.08,257.84a1.29,1.29,0,0,1-.17-.65h0v0h0v0h0v0h0v0h0v0h0v0h0v0h0v0h0v0a.58.58,0,0,1,.05-.14v0h0v0h0v0l0-.07v0h0a1.27,1.27,0,0,1,.47-.48,1.29,1.29,0,0,1,.57-.16h.13Z" fill="#a45d3d"/></g></svg>